<?xml version="1.0" standalone="no"?><!DOCTYPE svg PUBLIC "-//W3C//DTD SVG 1.1//EN" "http://www.w3.org/Graphics/SVG/1.1/DTD/svg11.dtd"><svg t="1682774347588" class="icon" viewBox="0 0 1024 1024" version="1.1" xmlns="http://www.w3.org/2000/svg" p-id="1051" xmlns:xlink="http://www.w3.org/1999/xlink" width="200" height="200"><path d="M885.88800031 432.63999969l-105.6 108.99200062c-41.59999969 41.59999969-60.79999969 102.528-51.20000062 163.45599938l25.60000031 153.85600031c3.19999969 12.79999969-12.79999969 22.39999969-22.39999969 16.00000031l-118.40000062-64.06400062c-57.6-32.064-127.99999969-32.064-185.59999969 0l-118.39999969 64.06400062c-12.79999969 6.40000031-25.60000031-3.19999969-22.40000062-16.00000031l25.60000031-153.85600031c9.6-57.72799969-9.6-118.59199969-51.19999969-163.45599938L156.28800031 432.63999969c-9.6-9.6-3.19999969-25.66399969 9.6-25.66399969l134.4-19.2c64.00000031-9.6 118.39999969-51.32800031 144-108.99199969l60.79999969-131.45600062c6.40000031-12.79999969 22.39999969-12.79999969 28.8 0l60.79999969 131.45600062c25.60000031 57.66400031 79.99999969 96.12799969 144 105.72799969l134.4 19.26400031c16.00000031 6.40000031 19.2 19.2 12.80000062 28.8m28.8-83.26400062l-166.40000062-25.66399969c-41.59999969-6.40000031-79.99999969-35.26399969-96-73.728l-73.59999938-153.85600031c-22.39999969-51.264-92.80000031-51.264-118.40000062 0l-70.39999969 153.85600031c-19.2 38.46400031-54.40000031 67.32799969-96 73.728l-166.39999969 25.60000031c-51.19999969 6.40000031-73.60000031 70.52800031-35.20000031 108.99199969l124.8 128.256c28.8 28.8 41.59999969 70.52800031 35.20000031 112.19200031l-28.8 179.45599969c-9.6 54.528 48 92.99200031 96 67.32799969l140.79999938-76.92799969c38.4-22.39999969 86.4-22.39999969 124.8 0l140.80000031 76.92799969c48 25.60000031 102.40000031-12.79999969 96-67.32799969l-31.99999969-179.45599969a129.91999969 129.91999969 0 0 1 35.19999938-112.19200031l124.8-128.256c38.4-38.4 16.00000031-102.528-35.19999938-108.92800031" fill="#bababa" p-id="1052"></path></svg>